<svg width="24" height="24" viewBox="0 0 24 24" fill="none" xmlns="http://www.w3.org/2000/svg">
<path d="M8.66152 4.18857C7.1209 4.16626 5.56681 4.59563 4.21393 5.49959C1.12163 7.5658 -0.0880582 11.5524 1.33517 14.9884C2.7584 18.4244 6.43112 20.3875 10.0787 19.6619C13.7264 18.9364 16.3684 15.717 16.3684 11.9979V11.3021C16.3684 10.9448 16.1307 10.5551 15.7136 10.5551H8.71791C8.24738 10.5551 7.86868 10.9338 7.86868 11.4043V12.5447C7.86868 13.0152 8.24738 13.3939 8.71791 13.3939H13.2801C12.775 15.1161 11.355 16.463 9.51551 16.8289C7.20169 17.2892 4.90617 16.062 4.00336 13.8824C3.10055 11.7029 3.85635 9.21186 5.81792 7.90118C7.55447 6.74085 9.78456 6.8079 11.4308 7.99603C11.7417 8.20116 12.2869 8.26567 12.5971 7.95538L13.5764 6.97541C13.9027 6.58389 13.648 6.05949 13.4156 5.87862C12.2174 4.92714 10.7892 4.37059 9.32033 4.22592C9.10139 4.20436 8.88161 4.19176 8.66152 4.18857Z" fill="#FF005D"/>
<path d="M20.148 9.12573C19.6775 9.12573 19.2988 9.50444 19.2988 9.97497V10.9201H18.354C17.8835 10.9201 17.5044 11.2989 17.5044 11.7694V12.2301C17.5044 12.7006 17.8835 13.0793 18.354 13.0793H19.2988V14.0245C19.2988 14.495 19.6775 14.8737 20.148 14.8737H20.6087C21.0793 14.8737 21.458 14.495 21.458 14.0245V13.0793H22.4032C22.8737 13.0793 23.2524 12.7006 23.2524 12.2301V11.7694C23.2524 11.2989 22.8737 10.9201 22.4032 10.9201H21.458V9.97497C21.458 9.50444 21.0793 9.12573 20.6087 9.12573H20.148Z" fill="#FF005D"/>
</svg>
