<svg width="24" height="24" viewBox="0 0 24 24" fill="none" xmlns="http://www.w3.org/2000/svg">
<path d="M12.5891 15.6594C13.4994 12.2619 17.6954 12.539 17.6954 15.4917V22.1307C17.6954 22.754 18.1971 23.2557 18.8204 23.2557H21.1901C21.8133 23.2557 22.3151 22.754 22.3151 22.1307V13.0312C22.3151 7.6564 12.4907 7.0087 12.5392 11.2727L12.5891 15.6594ZM2.81249 7.35547C2.18925 7.35547 1.6875 7.85722 1.6875 8.48046V22.1307C1.6875 22.754 2.18925 23.2557 2.81249 23.2557H5.18222C5.80546 23.2557 6.30721 22.754 6.30721 22.1307V8.48046C6.30721 7.85722 5.80546 7.35547 5.18222 7.35547H2.81249Z" fill="#00A1FF"/>
<path d="M9.70918 7.3554C9.08594 7.3554 8.58419 7.85715 8.58419 8.48039V22.1307C8.58419 22.7539 9.08594 23.2556 9.70918 23.2556H12.0789C12.7021 23.2556 13.2039 22.7539 13.2039 22.1307V8.48039C13.2039 7.85715 12.7021 7.3554 12.0789 7.3554H9.70918ZM4.0487 5.46898C3.42292 5.46898 2.82278 5.2204 2.38029 4.7779C1.9378 4.33541 1.68921 3.73527 1.68921 3.10949C1.68921 2.79964 1.75024 2.49282 1.86881 2.20655C1.98739 1.92029 2.16119 1.66018 2.38029 1.44108C2.59939 1.22198 2.8595 1.04818 3.14576 0.929606C3.43203 0.81103 3.73885 0.75 4.0487 0.75C4.35855 0.75 4.66537 0.81103 4.95164 0.929606C5.23791 1.04818 5.49801 1.22198 5.71711 1.44108C5.93621 1.66018 6.11001 1.92029 6.22859 2.20655C6.34716 2.49282 6.40819 2.79964 6.40819 3.10949C6.40819 3.73527 6.1596 4.33541 5.71711 4.7779C5.27462 5.2204 4.67448 5.46898 4.0487 5.46898Z" fill="#00A1FF"/>
</svg>
