<svg width="24" height="24" viewBox="0 0 24 24" fill="none" xmlns="http://www.w3.org/2000/svg">
<path d="M12.7481 10.369C12.7481 10.369 11.2411 12.11 8.12472 13.2891C5.00836 14.4682 3.58502 14.0075 3.58502 14.0075C3.58502 14.0075 1.9864 13.7599 3.64372 16.0228C5.0036 17.8796 8.20384 17.6493 8.20384 17.6493C8.20384 17.6493 12.1945 17.6556 14.7842 15.0618C17.374 12.468 17.1569 11.1534 16.9433 10.2502C16.7297 9.347 12.7481 10.3691 12.7481 10.3691L12.7481 10.369Z" fill="#01A9F4"/>
<path d="M11.8956 8.51294C11.8956 8.51294 9.83158 9.73997 6.35986 9.88147C2.88814 10.023 1.63123 9.0988 1.63123 9.0988C1.63123 9.0988 0.130764 8.32784 1.02629 11.1124C1.76109 13.3972 5.00371 14.2221 5.00371 14.2221C5.00371 14.2221 8.95057 15.5413 12.3666 13.8266C15.7827 12.1119 16.0003 10.7396 16.0861 9.77555C16.172 8.8115 11.8956 8.51294 11.8956 8.51294Z" fill="#01C0F4"/>
<path d="M16.7714 2.13525C13.954 2.13824 11.6717 4.42296 11.6717 7.24031C11.6718 7.59694 11.7094 7.95258 11.7836 8.3014C11.0473 8.29064 9.08207 8.14769 6.58743 6.99632C3.43263 5.54026 2.73451 4.14483 2.73451 4.14483C2.73451 4.14483 1.75035 2.775 1.2786 5.66174C0.891517 8.0304 3.40213 10.2419 3.40213 10.2419C3.40213 10.2419 6.31387 13.2152 10.136 13.2456C11.8918 13.2595 11.0411 14.7902 9.83305 15.8236C5.00985 19.9491 4.35395 19.2636 2.92823 19.1423C2.18395 19.0789 1.56755 19.8862 3.02944 20.7302C6.22356 22.5744 13.8068 22.6494 18.0537 17.2802C21.6479 12.7361 21.9755 8.63674 21.9562 7.34554C22.43 7.0838 22.8542 6.75638 23.0495 6.35885C23.6251 5.18679 22.8289 5.32591 22.8289 5.32591L21.9274 5.3782C22.4554 4.97715 22.9489 4.48589 23.083 3.95849C23.4047 2.69295 22.654 2.99325 22.654 2.99325L20.3709 3.61462C19.4148 2.66688 18.123 2.13517 16.7768 2.13525H16.7714Z" fill="#01CDF4"/>
</svg>
