<svg width="570" height="310" viewBox="0 0 570 310" fill="none" xmlns="http://www.w3.org/2000/svg">
<g clip-path="url(#clip0_4_116)">
<path d="M440.578 202.41C435.94 196.328 427.906 185.792 414.088 182.623C388.055 176.653 365.685 202.384 363.574 204.884C342.509 229.82 339.248 272.953 360.494 293.925C371.383 304.674 386.181 307.105 392.527 308.147C399.982 309.371 417.325 312.22 431.953 301.964C439.808 296.457 443.576 289.489 446.122 284.65C458.066 261.951 459.615 227.377 440.578 202.41ZM408.241 296.963C392.979 298.546 378.516 284.171 372.575 270.71C369.259 263.051 368.097 254.627 369.215 246.352C370.333 238.077 373.688 230.268 378.916 223.772C381.12 221.091 392.839 206.832 409.034 208.657C424.961 210.451 434.446 226.59 437.566 237.297C444.633 261.541 429.79 294.729 408.241 296.963Z" fill="#1C2FDA"/>
<path d="M311.994 300.09H303.968L300.15 269.016H311.996L311.994 300.09Z" fill="#FFB6B6"/>
<path d="M311.78 297.459L303.211 293.96L302.965 293.859L298.234 297.459C295.563 297.459 293.001 298.524 291.112 300.42C289.223 302.316 288.162 304.888 288.161 307.569V307.898H314.039V297.459H311.78Z" fill="#2F2E41"/>
<path d="M412.492 238.123L410.682 245.972L379.661 242.698L382.333 231.114L412.492 238.123Z" fill="#FFB6B6"/>
<path d="M410.4 235.526L409.935 237.531L409.888 237.738L404.574 245.323L404.412 245.55L406.835 250.987C406.537 252.281 406.495 253.62 406.713 254.93C406.93 256.24 407.403 257.493 408.104 258.62C408.804 259.746 409.719 260.722 410.796 261.494C411.873 262.265 413.09 262.815 414.379 263.114L414.695 263.187L420.534 237.885L410.4 235.526Z" fill="#2F2E41"/>
<path d="M306.551 133.073L350.807 134.627L351.115 134.177C351.115 134.177 354.89 143.019 354.89 150.597C354.89 153.117 353.144 169.597 354.032 172.714C354.142 173.102 353.383 174.052 353.632 175.858C353.793 177.03 354.685 176.129 354.89 177.753C355.037 178.918 353.468 179.562 353.632 180.91C353.811 182.383 355.97 187.155 356.165 188.794C358.234 206.241 354.866 210.775 354.866 210.775C354.866 210.775 392.717 226.695 395.057 227.178C398.986 227.989 401.639 235.159 399.461 236.651C398.425 237.361 394.974 250.588 394.974 250.588C394.238 250.721 391.935 249.562 393.402 246.82C393.672 246.315 392.061 247.6 391.794 246.995C391.509 246.353 387.476 249.173 387.15 248.459C384.222 242.053 347.583 233.176 343.323 228.618C337.027 221.884 333.041 213.306 331.944 204.137L328.294 170.487L324.945 185.74L322.174 188.489L322.934 194.898L322.803 201.119L315.882 227.012C315.882 227.012 314.844 275.367 316.511 276.902C317.414 277.734 321.245 287.978 313.995 288.901L300.821 287.881C300.821 287.881 299.046 284.127 299.933 282.791C300.821 281.454 300.768 281.819 299.685 279.632C298.602 277.445 299.046 273.74 299.046 273.74C297.32 256.326 296.639 238.824 297.007 221.328C297.668 192.592 301.669 159.579 301.669 158.907C301.703 158.219 301.577 157.533 301.301 156.903V155.089L303.001 148.662L306.551 133.073Z" fill="#2F2E41"/>
<path d="M354.772 143.464C343.597 145.404 336.104 144.665 331.492 137.78C325.476 130.091 314.536 139.17 305.305 142.546L304.21 141.359L302.348 139.344L304.059 137.399L302.348 133.648L303.776 129.019L305.601 128.684L305.11 124.699L304.342 122.369L306.595 119.887L308.507 113.691L307.129 100.726C305.244 82.9546 308.897 65.0334 317.586 49.4337L322.815 44.7225L324.985 42.7648L327.898 37.3083L330.975 37.6683L339.305 38.6345L339.588 39.3166L341.633 44.2678L349.061 52.277C350.112 53.4098 350.91 54.7541 351.403 56.2206C351.896 57.687 352.072 59.2421 351.92 60.7822L351.706 62.942L351.548 64.4955L350.806 71.9728L347.78 102.52L347.553 104.143L345.118 121.706C349.076 125.545 349.317 124.707 350.996 131.465C351.185 132.216 353.375 133.89 353.513 134.622C353.708 135.658 354.772 143.464 354.772 143.464Z" fill="#3F3D56"/>
<path d="M332.083 34.0895C340.074 34.0895 346.551 27.5874 346.551 19.5668C346.551 11.5461 340.074 5.04407 332.083 5.04407C324.092 5.04407 317.615 11.5461 317.615 19.5668C317.615 27.5874 324.092 34.0895 332.083 34.0895Z" fill="#FFB6B6"/>
<path d="M347.22 8.63451C346.265 7.59826 345.037 6.85432 343.678 6.48848C342.319 6.12265 340.885 6.14984 339.542 6.56695C338.953 4.87495 337.912 3.37762 336.534 2.23797C335.156 1.09832 333.493 0.36005 331.725 0.103534C329.958 -0.152982 328.155 0.0820938 326.511 0.783165C324.868 1.48424 323.448 2.62442 322.405 4.07959C321.929 3.86473 321.405 3.77705 320.884 3.82505C320.364 3.87304 319.865 4.05509 319.435 4.35355C318.582 4.96247 317.895 5.77648 317.436 6.72106C316.253 8.97675 315.702 11.5122 315.841 14.0574C315.98 16.6027 316.803 19.0626 318.225 21.1752C317.658 20.0276 319.25 22.004 320.802 21.4862C322.135 21.1356 327.609 17.6119 328.976 17.7901C330.342 17.9682 330.785 16.8624 332.122 16.5271C333.431 16.1068 336.772 21.5385 337.442 25.1325C337.569 25.8136 337.877 26.6598 338.567 26.6753C339.417 26.6945 339.671 25.4726 340.388 25.0138C340.726 24.8413 341.118 24.8072 341.48 24.9186C341.843 25.0301 342.148 25.2785 342.331 25.6115C342.499 25.9536 342.583 26.331 342.576 26.7122C342.568 27.0934 342.471 27.4674 342.291 27.8031C341.924 28.4702 341.453 29.0737 340.895 29.59L341.266 29.7947C341.632 30.0576 342.077 30.1846 342.526 30.154C342.975 30.1234 343.399 29.9372 343.726 29.6271C345.107 30.2529 348.866 26.7238 348.367 24.5887C349.416 21.9716 349.99 19.1869 350.061 16.3667C350.119 13.522 349.104 10.7602 347.22 8.63451Z" fill="#2F2E41"/>
<path d="M235.711 57.5705C236.246 58.0756 236.885 58.4567 237.583 58.6869C238.281 58.9172 239.021 58.991 239.75 58.9032C240.48 58.8155 241.181 58.5682 241.805 58.1789C242.429 57.7895 242.961 57.2676 243.362 56.6498L274.289 64.0788L271.201 55.2936L241.621 49.4295C240.542 48.8216 239.279 48.6319 238.07 48.8965C236.862 49.1611 235.792 49.8614 235.063 50.8649C234.335 51.8684 233.998 53.1053 234.118 54.3412C234.237 55.5771 234.804 56.7261 235.711 57.5705Z" fill="#FFB8B8"/>
<path d="M328.109 52.1667L325.631 50.8697L314.33 50.6914L313.916 50.6871L313.894 50.6891L305.229 50.5561L263.391 49.8981L261.708 51.3727L259.122 49.831L256.19 48.3394L253.499 49.7426L251.197 49.7064L250.847 51.2561L250.844 51.2617L250.834 51.3065L249.275 58.0677L249.272 58.0733L249.292 59.668L251.998 62.5959L253.433 63.7L256.413 65.0226L258.476 62.5564L260.895 65.0787L270.812 66.9112C287.392 71.496 302.658 73.7026 314.374 69.4649L315.846 69.3959L327.476 68.8404C329.066 68.7663 330.598 68.2212 331.88 67.2739C333.161 66.3265 334.135 65.0195 334.677 63.5175L334.68 63.512C335.047 62.4919 335.205 61.4074 335.142 60.3244C335.091 59.329 334.852 58.3525 334.439 57.4463C333.696 55.7977 332.428 54.4444 330.834 53.6002L328.109 52.1667Z" fill="#3F3D56"/>
<path d="M500.614 290.596C501.173 290.617 501.725 290.464 502.195 290.16C502.664 289.855 503.029 289.412 503.24 288.893C503.451 288.373 503.497 287.8 503.373 287.253C503.249 286.706 502.96 286.21 502.546 285.833C502.475 285.559 502.423 285.362 502.352 285.089C502.874 283.72 503.791 282.54 504.985 281.698C506.18 280.856 507.597 280.391 509.057 280.364C510.516 280.336 511.95 280.746 513.176 281.542C514.401 282.338 515.362 283.483 515.935 284.83C519.239 292.394 523.497 300.215 521.496 308.6C534.961 279.234 529.942 242.915 509.397 218.108C503.753 215.058 499.151 209.587 497.906 203.195C500.693 204.113 504.136 201.812 502.019 198.894C501.103 197.78 500.178 196.675 499.262 195.561C509.708 184.179 522.451 201.789 510.979 217.127C514.824 221.873 518.165 227.009 520.946 232.452C520.261 226.651 520.957 220.769 522.979 215.29C525.031 210.183 528.929 205.861 532.355 201.429C536.52 196.03 545.222 198.42 545.854 205.215C541.975 206.536 541.523 212.182 545.981 212.912C544.935 225.574 536.811 237.279 525.523 242.936C529.823 254.691 531.578 267.231 530.67 279.72C532.533 265.116 548.097 261.428 558.943 255.527C559.633 255.074 560.439 254.832 561.263 254.83C562.088 254.829 562.894 255.069 563.585 255.52C564.276 255.971 564.822 256.614 565.155 257.371C565.488 258.128 565.594 258.966 565.461 259.782C563.962 260.411 562.529 261.187 561.183 262.1C560.552 262.535 560.071 263.154 559.805 263.874C559.539 264.593 559.501 265.378 559.697 266.12C559.892 266.862 560.312 267.526 560.898 268.019C561.484 268.513 562.207 268.812 562.97 268.876C557.604 282.58 543.484 291.883 528.892 291.971C527.548 298.1 525.572 304.073 522.998 309.793L501.341 310C501.261 309.759 501.189 309.511 501.117 309.27C503.123 309.377 505.134 309.237 507.106 308.854C501.743 302.602 497.611 299.425 500.614 290.597L500.614 290.596Z" fill="#F2F2F2"/>
<path d="M65.1659 229.142C64.607 229.163 64.0554 229.01 63.5858 228.706C63.1161 228.401 62.7512 227.958 62.5404 227.439C62.3296 226.919 62.2831 226.346 62.4072 225.799C62.5313 225.252 62.8201 224.756 63.2343 224.379C63.3057 224.105 63.3569 223.908 63.4282 223.635C62.9066 222.266 61.9897 221.086 60.7952 220.244C59.6006 219.402 58.1829 218.937 56.7236 218.91C55.2643 218.882 53.83 219.292 52.6045 220.088C51.379 220.884 50.4183 222.029 49.8453 223.376C46.541 230.94 42.2831 238.761 44.2842 247.146C30.8195 217.78 35.8378 181.461 56.3838 156.654C62.0268 153.604 66.6291 148.133 67.8743 141.741C65.0871 142.659 61.6448 140.358 63.7615 137.44C64.6776 136.326 65.6024 135.221 66.5184 134.107C56.072 122.725 43.3295 140.335 54.8013 155.673C50.9559 160.419 47.6154 165.555 44.8341 170.999C45.5195 165.197 44.8229 159.315 42.8017 153.836C40.749 148.729 36.8517 144.407 33.4256 139.975C29.2601 134.576 20.5585 136.966 19.9267 143.761C23.8057 145.082 24.2577 150.728 19.7993 151.458C20.8451 164.12 28.9689 175.825 40.2571 181.482C35.9572 193.237 34.2027 205.777 35.1106 218.266C33.2471 203.662 17.6837 199.974 6.8371 194.073C6.14749 193.62 5.34137 193.378 4.51707 193.376C3.69276 193.375 2.88591 193.615 2.19494 194.066C1.50397 194.517 0.958749 195.16 0.625784 195.917C0.292819 196.674 0.186515 197.512 0.319821 198.328C1.81863 198.957 3.25154 199.733 4.59744 200.646C5.22804 201.081 5.70935 201.7 5.97542 202.42C6.24148 203.14 6.27927 203.924 6.0836 204.666C5.88793 205.409 5.46838 206.072 4.88246 206.565C4.29654 207.059 3.57292 207.358 2.81082 207.422C8.17641 221.126 22.2965 230.429 36.8885 230.517C38.2327 236.646 40.2079 242.619 42.7823 248.339L64.4391 248.546C64.519 248.305 64.5913 248.057 64.6634 247.816C62.6576 247.923 60.6463 247.783 58.6743 247.4C64.0376 241.148 68.1697 237.971 65.1665 229.143L65.1659 229.142Z" fill="#F2F2F2"/>
<path d="M59.8952 227.831C100.585 221.222 125.716 288.653 151.96 284.409C200.057 276.632 180.121 34.6953 217.72 32.6378C249.771 30.8839 290.887 137.646 324.843 201.697C342.691 235.364 352.393 259.31 352.393 259.31C352.393 259.31 337.542 331.648 316.424 303.096C286.257 262.309 263.574 119.472 246.843 125.991C221.224 135.973 250.12 258.784 188.598 296.668C134.861 329.758 29.8963 282.743 29.8333 253.291C29.8091 241.98 45.2511 230.21 59.8952 227.831Z" fill="#1C2FDA"/>
<path d="M255.425 214.036C247.133 215.941 236.244 221.828 236.835 227.254C237.468 233.069 251.302 238.458 262.396 235.029C271.497 232.216 279.78 223.151 277.888 217.924C275.935 212.528 263.488 212.184 255.425 214.036Z" fill="#1C2FDA"/>
<path d="M473.123 194.519C475.799 189.97 479.627 183.228 476.819 178.45C472.986 171.927 461.099 163.23 453.702 171.714C448.081 178.162 449.343 180.74 449.418 190.75C449.623 218.078 434.21 276.439 450.32 304.211C453.335 309.41 470.003 308.379 476.606 309.026C483.926 309.742 491.868 302.599 491.416 294.332C491.011 286.929 484.079 284.773 477.154 279.903C452.245 262.388 459.263 218.075 473.123 194.519Z" fill="#1C2FDA"/>
<path d="M158.32 37.9916C158.152 40.0196 157.988 42.0475 157.83 44.0755C157.709 46.4508 157.379 48.8106 156.843 51.1274C156.721 51.7702 156.445 52.3738 156.04 52.8865C155.32 53.7084 156.652 58.5172 155.665 58.9781C154.662 59.4574 153.585 59.7614 152.481 59.8769C152.435 59.5389 152.374 59.2009 152.305 58.8706C152.297 58.8322 152.29 58.8014 152.282 58.763C151.969 57.2637 151.391 55.8327 150.575 54.5381C150.768 56.0721 150.597 57.63 150.078 59.0857C149.994 59.3238 149.894 59.5619 149.787 59.8001C145.448 59.1548 141.69 56.2127 138.728 56.2434C136.929 50.1875 135.662 43.9851 134.94 37.7073C134.749 36.0327 134.642 34.1738 135.667 32.8448C136.578 31.6618 138.132 31.2316 139.586 30.9167C144.336 29.8864 149.191 29.4198 154.05 29.5263L145.639 27.5598C148.001 27.426 150.37 27.6513 152.664 28.2281C154.922 28.9117 157.057 30.4097 157.93 32.6143C158.596 34.2966 158.458 36.1864 158.32 37.9916Z" fill="#2F2E41"/>
<path d="M110.951 293.343H102.855L99.0029 261.997L110.952 261.998L110.951 293.343Z" fill="#FFB6B6"/>
<path d="M86.5146 305.334C86.5186 306.244 86.8801 307.116 87.5208 307.76C88.1614 308.405 89.0295 308.769 89.9364 308.775H105.177L105.649 307.793L107.805 303.328L108.64 307.793L108.825 308.775H114.573L114.491 307.786L112.958 289.335L110.953 289.211L102.289 288.696L100.161 288.566V294.075C98.5456 295.799 85.8713 302.318 86.5146 305.334Z" fill="#2F2E41"/>
<path d="M205.8 284.497L198.758 288.508L179.998 263.153L190.39 257.235L205.8 284.497Z" fill="#FFB6B6"/>
<path d="M190.441 307.03C190.889 307.823 191.632 308.405 192.507 308.648C193.382 308.892 194.318 308.777 195.108 308.329L195.909 307.875H195.916L208.364 300.779L207.968 294.741L211.54 298.973L214.175 297.468L216.536 296.122L214.448 293.058L205.572 280.013L203.766 280.906L195.971 284.746L194.068 285.687L196.771 290.475C196.217 292.783 188.402 304.722 190.441 307.03Z" fill="#2F2E41"/>
<path d="M151.129 139.478C160.612 139.82 159.156 162.371 162.116 181.986C164.757 199.485 172.482 214.263 169.899 214.891L195.47 262.726C185.471 272.049 173.738 278.23 159.073 279.103C143.159 264.424 138.795 230.646 135.141 195.694L131.153 226.389L136.471 275.099L112.944 280.81L96.6719 279.643C82.8797 223.802 108.973 160.65 120.207 136.656L151.129 139.478Z" fill="#2F2E41"/>
<path d="M161.189 127.81L165.497 114.839L168.574 110.515L169.804 98.1604C169.804 64.804 162.392 70.3585 162.392 70.3585L152.723 58.6269L141.723 58.2819L133.03 58.0092L125.803 70.0545C122.619 71.1826 119.785 73.1276 117.581 75.6963C115.378 78.2649 113.883 81.3676 113.245 84.696L111.245 95.1275L118.726 117.927L118.396 116.233C114.875 122.759 115.77 123.74 118.687 128.64L118.832 130.41C118.966 132.001 119.595 133.51 120.629 134.725C121.663 135.939 123.051 136.797 124.596 137.177C155.755 144.972 158.993 158.607 162.999 152.978C163.93 151.67 159.979 136.058 161.327 136.193C165.018 136.564 161.189 127.81 161.189 127.81Z" fill="#E6E6E6"/>
<path d="M182.511 176.089C181.877 175.503 181.377 174.786 181.046 173.986C180.715 173.187 180.561 172.325 180.594 171.461C180.628 170.596 180.848 169.749 181.24 168.978C181.631 168.207 182.185 167.53 182.863 166.995L175.143 138.236L182.543 134.136L191.464 168.362C192.276 169.574 192.617 171.043 192.422 172.491C192.228 173.939 191.511 175.264 190.407 176.217C189.303 177.17 187.89 177.683 186.435 177.659C184.98 177.636 183.584 177.077 182.511 176.089H182.511Z" fill="#FFB6B6"/>
<path d="M161.253 69.5193C161.253 69.5193 174.993 73.719 176.201 81.0514C177.41 88.3837 179.522 94.8523 178.976 97.8518C178.43 100.851 185.246 120.926 183.918 123.235C182.589 125.544 186.162 126.044 184.929 129.829C183.695 133.614 183.007 134.4 183.79 135.09C184.572 135.78 187.948 150.79 187.948 150.79L177.654 153.792L158.696 106.638L161.253 69.5193Z" fill="#E6E6E6"/>
<path d="M107.126 176.089C107.761 175.503 108.261 174.786 108.592 173.986C108.923 173.187 109.077 172.325 109.043 171.461C109.01 170.596 108.79 169.749 108.398 168.977C108.006 168.206 107.452 167.53 106.774 166.995L114.495 138.236L107.095 134.136L98.174 168.362C97.3617 169.574 97.0206 171.043 97.2153 172.491C97.4101 173.939 98.1272 175.264 99.2307 176.217C100.334 177.169 101.748 177.683 103.203 177.659C104.658 177.636 106.054 177.077 107.126 176.089L107.126 176.089Z" fill="#FFB6B6"/>
<path d="M128.385 69.5193C128.385 69.5193 114.645 73.719 113.436 81.0514C112.227 88.3837 110.116 94.8523 110.661 97.8518C111.207 100.851 104.392 120.926 105.72 123.235C107.048 125.544 103.475 126.044 104.709 129.829C105.943 133.614 106.63 134.4 105.848 135.09C105.065 135.78 101.689 150.79 101.689 150.79L111.983 153.792L130.942 106.638L128.385 69.5193Z" fill="#E6E6E6"/>
<path d="M139.635 56.395C149.094 56.395 156.762 48.698 156.762 39.2033C156.762 29.7086 149.094 22.0116 139.635 22.0116C130.175 22.0116 122.507 29.7086 122.507 39.2033C122.507 48.698 130.175 56.395 139.635 56.395Z" fill="#FFB6B6"/>
<path d="M157.011 66.47C150.552 60.7049 161.565 44.2379 152.963 33.2482L151.93 32.472C151.151 33.9594 149.887 35.1327 148.348 35.795C148.027 34.2965 147.488 32.8536 146.749 31.5125C146.934 33.1737 146.786 34.8553 146.312 36.4579C145.83 36.5189 145.486 36.4492 145.363 36.2311C145.517 37.5656 141.453 38.2284 142.302 36.1526C142.308 36.1317 142.316 36.1113 142.325 36.0916C141.277 38.2109 139.119 39.1965 137.244 40.374C135.369 41.5428 133.463 43.4965 133.647 45.9212C133.8 47.8836 135.292 49.3489 136.792 50.3257C138.292 51.3113 139.976 52.0788 141.062 53.6052C142.892 56.1694 142.463 59.9286 141.537 63.051C141.352 63.5497 141.049 63.9958 140.654 64.3513C140.26 64.7067 139.785 64.9609 139.272 65.0919C138.966 63.4104 138.39 61.7902 137.565 60.2949C137.758 62.032 137.588 63.7904 137.068 65.4583C135.952 65.5074 134.838 65.3287 133.794 64.9328C132.749 64.537 131.796 63.9324 130.991 63.1557L132.147 68.3016C130.287 67.9092 128.412 68.3539 126.522 68.6941C126.473 68.1118 126.394 67.5325 126.285 66.9585C125.987 65.2329 125.402 63.57 124.555 62.0393C124.792 64.1663 124.483 66.3188 123.66 68.2929C123.568 68.5197 123.468 68.7464 123.361 68.9645C120.453 68.7552 117.552 67.0544 118.104 62.6324C118.346 61.2134 118.935 59.8769 119.818 58.7424C121.318 56.6317 113.672 54.3727 114.139 51.8259C114.836 48.0493 121.808 44.7088 121.257 40.8973C120.767 37.4434 120.863 29.6469 122.757 26.9597C125.492 23.0776 122.457 15.0464 141.904 19.6071C149.139 21.3038 151.647 14.1805 162.552 35.933C164.422 39.6624 157.624 38.3803 161.618 46.3748C165.613 54.3692 154.172 60.7048 157.011 66.47Z" fill="#2F2E41"/>
<path d="M5.75659e-06 309.021C-0.00208351 308.582 0.564794 308.226 1.26624 308.225H568.726C569.43 308.225 570 308.581 570 309.021C570 309.46 569.43 309.817 568.726 309.817H1.27382C0.57238 309.818 0.00207972 309.464 5.75659e-06 309.025V309.021Z" fill="#CCCCCC"/>
<path d="M291.543 145.138C292.238 144.896 292.87 144.505 293.397 143.991C293.924 143.477 294.333 142.853 294.594 142.164C294.855 141.474 294.962 140.736 294.908 140C294.854 139.265 294.639 138.55 294.28 137.907L315.183 113.852L305.997 112.522L287.1 136.106C286.063 136.783 285.31 137.818 284.983 139.016C284.656 140.213 284.777 141.49 285.325 142.603C285.873 143.716 286.808 144.589 287.954 145.056C289.1 145.524 290.377 145.553 291.543 145.138V145.138Z" fill="#FFB8B8"/>
<path d="M300.692 131.753L303.662 128.465L306.527 128.217L306.723 127.973L307.471 127.014L307.758 124.342L309.959 123.824L314.864 117.535L315.614 116.283L336.205 92.1341L340.406 85.1126L341.066 83.6857L343.123 79.2438L342.852 68.0423C343.302 67.0749 343.556 66.0273 343.599 64.9605C343.642 63.8937 343.473 62.8289 343.103 61.8281C342.984 61.5039 342.845 61.1874 342.687 60.8808L342.571 60.663C342.27 60.1266 341.909 59.6263 341.496 59.1716L341.489 59.161C340.76 58.3597 339.875 57.7181 338.887 57.2764C338.118 56.9238 337.298 56.6957 336.457 56.6005C334.518 56.3847 332.565 56.8774 330.958 57.9883L328.431 59.7421L326.137 61.3465L320.886 71.0484L320.542 71.681L320.53 71.6964L304.361 101.556L299.487 110.559L298.744 111.927L298.675 115.927L296.331 116.372L293.563 118.452L293.285 121.994L291.983 127.706L291.785 128.027L292.998 128.749L293.115 128.816L293.336 129.011L296.423 131.671L298.295 133.289L298.357 133.339L298.844 133.799L300.692 131.753Z" fill="#3F3D56"/>
<path d="M123.174 29.0042C123.212 29.0188 123.246 29.0334 123.284 29.048C123.358 29.0806 123.433 29.1082 123.51 29.1307C124.002 29.3119 124.514 29.43 125.035 29.4824C125.257 29.5065 125.48 29.5184 125.704 29.5179C125.99 29.5189 126.277 29.5002 126.561 29.4621C126.877 29.4232 127.189 29.3594 127.495 29.2713C127.64 29.2322 127.783 29.1858 127.924 29.1322C128.88 28.7911 129.745 28.2319 130.45 27.4986C131.155 26.7653 131.681 25.8778 131.986 24.906V24.9012C132.019 24.8062 132.047 24.7095 132.069 24.6116C132.212 24.0678 132.285 23.5079 132.285 22.9455V22.9358C132.289 21.5645 131.863 20.2267 131.067 19.1116C130.588 18.4293 130.034 18.3152 130.345 17.535C131.336 15.046 127.28 13.0114 124.886 14.1058C124.8 14.0975 124.713 14.0941 124.626 14.0955C123.014 14.0914 122.416 16.4811 121.455 17.8264L121.483 17.8355C121.726 17.921 121.937 18.0808 122.085 18.2924C122.234 18.504 122.313 18.7569 122.311 19.0157C122.309 19.2746 122.227 19.5264 122.076 19.736C121.924 19.9456 121.712 20.1025 121.467 20.1847C120.827 20.394 120.18 20.5788 119.527 20.7393C117.373 23.2932 119.843 30.7648 123.174 29.0042Z" fill="#2F2E41"/>
<path d="M130.879 18.466C130.967 20.7612 130.38 23.0317 129.193 24.9952C128.006 26.9588 126.27 28.5288 124.201 29.5101C123.361 29.8922 122.629 28.6417 123.475 28.2569C125.324 27.4009 126.878 26.0129 127.939 24.269C129 22.5251 129.521 20.504 129.435 18.4624C129.387 17.5303 130.831 17.5368 130.879 18.4661V18.466Z" fill="#6C63FF"/>
</g>
<defs>
<clipPath id="clip0_4_116">
<rect width="570" height="310" fill="white"/>
</clipPath>
</defs>
</svg>
