<svg width="23" height="20" viewBox="0 0 23 20" fill="none" xmlns="http://www.w3.org/2000/svg">
<path d="M15.7714 0.135254C12.954 0.138237 10.6717 2.42296 10.6717 5.24031C10.6718 5.59694 10.7094 5.95258 10.7836 6.3014C10.0473 6.29064 8.08207 6.14769 5.58743 4.99632C2.43263 3.54026 1.73451 2.14483 1.73451 2.14483C1.73451 2.14483 0.750346 0.775 0.278603 3.66174C-0.108483 6.0304 2.40213 8.24194 2.40213 8.24194C2.40213 8.24194 5.31387 11.2152 9.13603 11.2456C10.8918 11.2595 10.0411 12.7902 8.83305 13.8236C4.00985 17.9491 3.35395 17.2636 1.92823 17.1423C1.18395 17.0789 0.567547 17.8862 2.02944 18.7302C5.22356 20.5744 12.8068 20.6494 17.0537 15.2802C20.6479 10.7361 20.9755 6.63674 20.9562 5.34554C21.43 5.0838 21.8542 4.75638 22.0495 4.35885C22.6251 3.18679 21.8289 3.32591 21.8289 3.32591L20.9274 3.3782C21.4554 2.97715 21.9489 2.48589 22.083 1.95849C22.4047 0.692949 21.654 0.993246 21.654 0.993246L19.3709 1.61462C18.4148 0.666876 17.123 0.135174 15.7768 0.135254H15.7714Z" fill="#01CDF4"/>
</svg>
