<svg width="17" height="16" viewBox="0 0 17 16" fill="none" xmlns="http://www.w3.org/2000/svg">
<path d="M8.66152 0.18857C7.1209 0.16626 5.56681 0.595626 4.21393 1.49959C1.12163 3.5658 -0.0880582 7.55241 1.33517 10.9884C2.7584 14.4244 6.43112 16.3875 10.0787 15.6619C13.7264 14.9364 16.3684 11.717 16.3684 7.99794V7.30215C16.3684 6.94475 16.1307 6.55509 15.7136 6.55509H8.71791C8.24738 6.55509 7.86868 6.93379 7.86868 7.40432V8.54469C7.86868 9.01522 8.24738 9.39392 8.71791 9.39392H13.2801C12.775 11.1161 11.355 12.463 9.51551 12.8289C7.20169 13.2892 4.90617 12.062 4.00336 9.88245C3.10055 7.70287 3.85635 5.21186 5.81792 3.90118C7.55447 2.74085 9.78456 2.8079 11.4308 3.99603C11.7417 4.20116 12.2869 4.26567 12.5971 3.95538L13.5764 2.97541C13.9027 2.58389 13.648 2.05949 13.4156 1.87862C12.2174 0.927142 10.7892 0.370592 9.32033 0.225924C9.10139 0.204361 8.88161 0.191758 8.66152 0.18857Z" fill="#FF005D"/>
</svg>
