<svg width="22" height="17" viewBox="0 0 22 17" fill="none" xmlns="http://www.w3.org/2000/svg">
<path d="M11.5891 8.65938C12.4994 5.26191 16.6954 5.53901 16.6954 8.4917V15.1307C16.6954 15.754 17.1971 16.2557 17.8204 16.2557H20.1901C20.8133 16.2557 21.3151 15.754 21.3151 15.1307V6.0312C21.3151 0.656401 11.4907 0.00870341 11.5392 4.27271L11.5891 8.65938ZM1.81249 0.355469C1.18925 0.355469 0.6875 0.857217 0.6875 1.48046V15.1307C0.6875 15.754 1.18925 16.2557 1.81249 16.2557H4.18222C4.80546 16.2557 5.30721 15.754 5.30721 15.1307V1.48046C5.30721 0.857217 4.80546 0.355469 4.18222 0.355469H1.81249Z" fill="#00A1FF"/>
</svg>
