<svg width="24" height="24" viewBox="0 0 24 24" fill="none" xmlns="http://www.w3.org/2000/svg">
<path d="M12.0013 0.75C5.78919 0.750129 0.753336 5.78616 0.753418 11.9983C0.753492 14.0409 1.30977 16.045 2.36256 17.7954L1.76048 21.8761C1.60383 22.8759 2.40467 23.3665 3.15122 23.2271L7.71247 22.396C9.07272 22.9572 10.5299 23.2461 12.0013 23.2462C18.2135 23.2463 23.2495 18.2105 23.2497 11.9983C23.2497 5.78601 18.2136 0.749918 12.0013 0.75Z" fill="#59D96B"/>
<path d="M8.84147 6.20859C8.12807 5.51673 7.12714 6.38626 6.70682 6.85177C5.80062 7.85539 5.45308 9.36404 5.89993 10.8381C6.34677 12.3121 7.43325 13.7957 9.22953 15.4176C11.0258 17.0395 12.6122 17.9694 14.1241 18.264C15.636 18.5585 17.1014 18.0592 18.0076 17.0556C18.4279 16.5901 19.1911 15.5059 18.4303 14.8666C18.3796 14.824 18.322 14.7834 18.2571 14.7451L15.734 13.9421C15.3116 13.7699 14.9504 14.0039 14.6679 14.2617L13.4134 15.4069C12.7052 15.0465 11.8518 14.4634 10.8819 13.5877C9.91196 12.7119 9.2451 11.9222 8.81452 11.2544L9.82606 9.88986C10.0538 9.58263 10.2498 9.19946 10.0355 8.7968L8.97999 6.36844C8.93525 6.30785 8.88903 6.25471 8.84147 6.20859L8.84147 6.20859Z" fill="white"/>
</svg>
